# xmcd
# 
# Track frame offsets:
#	150
#	16245
#	31285
#	42233
#	61758
#	75598
#	90190
#	105610
#	117235
#	132955
#	154238
#	174503
#	187854
#	204348
#	214758
#	225460
#
# Disc length: 3172 seconds
#
# Revision: 1
# Processed by: cddbd v1.4PL0 Copyright (c) Steve Scherf et al.
# Submitted via: Audio-CD-Archiv 2.10.441
#
DISCID=bc0c6210
DTITLE=Various Artist - Countrytime in Germany CD 3
DYEAR=1900
DGENRE=country
TTITLE0=Linda Feller - Engel lieben meist die Falschen
TTITLE1=Nashville Music Company - Nur mit Dir
TTITLE2=Freddy Quinn - Kann Liebe alles verzeih´n
TTITLE3=Jonny Hill - Der alte Mann
TTITLE4=Rheinstone Cowboys - Un dann dräum ich vun Virginia
TTITLE5=Rosi Funck - Unsere Liebe ist viel stärker
TTITLE6=Joe Hodkins - Nimm dir Zeit für die Freunde
TTITLE7=Greyhounds - Kättschn- Quetschen
TTITLE8=Fairplay - Sommerfest in der Laubenkolonie
TTITLE9=Larry Schuba and Western Union - Bunte Tränen
TTITLE10=Abi Hoffmann - Liebe ist mehr
TTITLE11=Tex Haper - Er tut´s nur für Marianne
TTITLE12=Nashville Music Company - Nie mehr allein
TTITLE13=Jonny Hill - König der Landstrasse
TTITLE14=Black Bottom Skiffle Group - Des Indianaleb´n
TTITLE15=Truck Stop - Der wilde, wilde Westen
EXTD=
EXTT0=
EXTT1=
EXTT2=
EXTT3=
EXTT4=
EXTT5=
EXTT6=
EXTT7=
EXTT8=
EXTT9=
EXTT10=
EXTT11=
EXTT12=
EXTT13=
EXTT14=
EXTT15=
PLAYORDER=
